<svg width="41" height="41" viewBox="0 0 41 41" fill="none" xmlns="http://www.w3.org/2000/svg">
<g id="vuesax/bold/bag">
<g id="vuesax/bold/bag_2">
<g id="bag">
<path id="Vector" d="M32.8684 9.5327H32.1851L26.4109 3.75854C25.9497 3.29729 25.198 3.29729 24.7197 3.75854C24.2584 4.21979 24.2584 4.97145 24.7197 5.44979L28.8026 9.5327H12.1976L16.2805 5.44979C16.7417 4.98854 16.7417 4.23687 16.2805 3.75854C15.8192 3.29729 15.0676 3.29729 14.5892 3.75854L8.83216 9.5327H8.14883C6.61133 9.5327 3.41675 9.5327 3.41675 13.906C3.41675 15.5631 3.75841 16.6565 4.47591 17.374C4.88591 17.801 5.38133 18.0231 5.91091 18.1427C6.40633 18.2623 6.93592 18.2794 7.44842 18.2794H33.5517C34.0813 18.2794 34.5767 18.2452 35.0551 18.1427C36.4901 17.801 37.5834 16.776 37.5834 13.906C37.5834 9.5327 34.3888 9.5327 32.8684 9.5327Z" fill="white"/>
<path id="Vector_2" d="M32.5436 20.5H8.31946C7.2603 20.5 6.45738 21.4396 6.62821 22.4817L8.06321 31.2625C8.54154 34.2008 9.82279 37.5833 15.5115 37.5833H25.0953C30.8524 37.5833 31.8774 34.6963 32.4924 31.4675L34.2178 22.5329C34.4228 21.4737 33.6199 20.5 32.5436 20.5ZM18.1253 31.5188C18.1253 32.185 17.5957 32.7146 16.9465 32.7146C16.2803 32.7146 15.7507 32.185 15.7507 31.5188V25.8812C15.7507 25.2321 16.2803 24.6854 16.9465 24.6854C17.5957 24.6854 18.1253 25.2321 18.1253 25.8812V31.5188ZM25.437 31.5188C25.437 32.185 24.9074 32.7146 24.2411 32.7146C23.592 32.7146 23.0453 32.185 23.0453 31.5188V25.8812C23.0453 25.2321 23.592 24.6854 24.2411 24.6854C24.9074 24.6854 25.437 25.2321 25.437 25.8812V31.5188Z" fill="white"/>
</g>
</g>
</g>
</svg>
